<svg width="17" height="17" viewBox="0 0 17 17" fill="none" xmlns="http://www.w3.org/2000/svg">
<g clip-path="url(#clip0_34_1188)">
<path d="M16.3824 0.816797L12.9293 0.0199223C12.5541 -0.0664058 12.169 0.129493 12.0162 0.481446L10.4225 4.2002C10.283 4.52559 10.376 4.90742 10.6516 5.12988L12.6637 6.77676C11.4684 9.32344 9.37989 11.4418 6.78009 12.6604L5.13321 10.6482C4.90743 10.3727 4.52892 10.2797 4.20353 10.4191L0.484776 12.0129C0.129502 12.1689 -0.0663961 12.5541 0.019932 12.9293L0.816807 16.3824C0.899815 16.741 1.21856 17 1.59376 17C10.0971 17 17 10.1104 17 1.59375C17 1.22188 16.7443 0.899805 16.3824 0.816797Z" fill="#202223"/>
</g>
<defs>
<clipPath id="clip0_34_1188">
<rect width="17" height="17" fill="white" transform="translate(-0.000335693 -0.000358582)"/>
</clipPath>
</defs>
</svg>
