<svg width="24" height="27" viewBox="0 0 24 27" fill="none" xmlns="http://www.w3.org/2000/svg">
<path d="M3.5 3.22501C4.87766 3.22501 5.5665 3.22501 5.5665 3.22501C5.5665 3.22501 6.03258 7.72501 6.96474 16.725H19.5" stroke="#202223" stroke-width="1.5" stroke-linecap="square"/>
<path d="M6.22628 7.15054C14.866 7.15054 19.1858 7.15054 19.1858 7.15054C19.1858 7.15054 18.916 9.18954 18.3765 13.2676L7.62926 14.3846" stroke="#202223" stroke-width="1.5" stroke-linecap="square"/>
<path d="M8.875 21.855C9.63439 21.855 10.25 21.2394 10.25 20.48C10.25 19.7206 9.63439 19.105 8.875 19.105C8.11561 19.105 7.5 19.7206 7.5 20.48C7.5 21.2394 8.11561 21.855 8.875 21.855Z" stroke="#202223" stroke-width="1.25"/>
<path d="M17.375 21.855C18.1344 21.855 18.75 21.2394 18.75 20.48C18.75 19.7206 18.1344 19.105 17.375 19.105C16.6156 19.105 16 19.7206 16 20.48C16 21.2394 16.6156 21.855 17.375 21.855Z" stroke="#202223" stroke-width="1.25"/>
</svg>
