<svg width="20" height="20" viewBox="0 0 20 20" fill="none" xmlns="http://www.w3.org/2000/svg">
<path d="M10.25 10.22C11.5429 10.22 12.7829 9.70639 13.6971 8.79215C14.6114 7.87791 15.125 6.63793 15.125 5.345C15.125 4.05207 14.6114 2.8121 13.6971 1.89786C12.7829 0.983616 11.5429 0.470001 10.25 0.470001C8.95707 0.470001 7.71709 0.983616 6.80285 1.89786C5.88861 2.8121 5.375 4.05207 5.375 5.345C5.375 6.63793 5.88861 7.87791 6.80285 8.79215C7.71709 9.70639 8.95707 10.22 10.25 10.22ZM13.5 5.345C13.5 6.20695 13.1576 7.03361 12.5481 7.6431C11.9386 8.25259 11.112 8.595 10.25 8.595C9.38805 8.595 8.5614 8.25259 7.9519 7.6431C7.34241 7.03361 7 6.20695 7 5.345C7 4.48305 7.34241 3.6564 7.9519 3.0469C8.5614 2.43741 9.38805 2.095 10.25 2.095C11.112 2.095 11.9386 2.43741 12.5481 3.0469C13.1576 3.6564 13.5 4.48305 13.5 5.345ZM20 18.345C20 19.97 18.375 19.97 18.375 19.97H2.125C2.125 19.97 0.5 19.97 0.5 18.345C0.5 16.72 2.125 11.845 10.25 11.845C18.375 11.845 20 16.72 20 18.345ZM18.375 18.3385C18.3734 17.9388 18.1248 16.7362 17.023 15.6345C15.9635 14.575 13.9696 13.47 10.25 13.47C6.52875 13.47 4.5365 14.575 3.477 15.6345C2.37525 16.7362 2.12825 17.9388 2.125 18.3385H18.375Z" fill="black"/>
</svg>
